<svg preserveAspectRatio="xMidYMid meet" height="100px" version="1" viewBox="0 0 500 500" width="100px" xmlns="http://www.w3.org/2000/svg" xmlns:xlink="http://www.w3.org/1999/xlink">
    <g stroke="none" transform="matrix(0.1,0,0,-0.1,0,500)">
        <path d="M 2618.2 4583.8 c -79 -34 -112 -88 -159 -258 c -72 -261 -240 -510 -661 -981 c -270 -302 -460 -541 -509 -640 c -94 -188 -157 -370 -182 -525 c -19 -118 -17 -361 5 -478 c 89 -484 409 -894 873 -1118 c 109 -53 252 -108 260 -100 c 3 2 -13 10 -34 17 c -116 38 -296 160 -419 284 c -135 136 -255 328 -315 503 c -84 244 -99 543 -39 795 c 92 386 344 712 685 886 c 77 38 224 91 293 104 l 32 7 l 0 -180 l 0 -180 l 230 0 l 230 0 l 0 845 l 0 844 l -24 53 c -51 115 -164 166 -266 122 z" fill="#0000ff"/>
        <circle cx="2688.2" cy="1549.8" r="1050"/>
    </g>
    <rect fill="rgb(255, 255, 255)" height="78.2" transform="matrix(0.8,0.6,-0.6,0.8,233.3,-63.7)" width="19.9" x="271.1" y="317.7"/>
</svg>
